<svg xmlns="http://www.w3.org/2000/svg" version="1.1" xmlns:xlink="http://www.w3.org/1999/xlink" width="1365.3333" height="1365.3333"><svg version="1.1" id="SvgjsSvg1864" width="1365.3333" height="1365.3333" viewBox="0 0 1365.3333 1365.3333" xmlns="http://www.w3.org/2000/svg" xmlns:svg="http://www.w3.org/2000/svg">
  <defs id="SvgjsDefs1863"></defs>
  <g id="SvgjsG1862">
    <path style="fill:#2d71d5;fill-opacity:1;stroke-width:1.63256" d="m 692.1705,1359.0163 c -14.7951,-2.8893 -31.33147,-9.2101 -46.0059,-17.5852 l -11.72193,-6.6901 71.3107,-35.4013 c 39.2209,-19.4709 76.71952,-37.8823 83.33027,-40.9146 l 12.01955,-5.5132 -3.85671,-3.0506 c -12.0074,-9.4972 -25.80736,-22.874 -24.97956,-24.2134 0.52715,-0.8529 0.0642,-1.3489 -1.0289,-1.1022 -2.86538,0.6468 -18.43272,-22.6942 -22.68366,-34.0109 -17.03022,-45.3374 -26.62046,-142.0842 -30.40702,-306.74753 l -1.05118,-45.71195 3.91114,-5.68912 c 2.15112,-3.12904 6.82804,-7.34121 10.39313,-9.36041 6.46877,-3.66381 6.64122,-3.67136 84.43719,-3.69815 42.87536,-0.0147 77.9552,0.54676 77.9552,1.24783 0,0.7011 -8.12472,19.61849 -18.05493,42.03866 -29.718,67.0966 -36.64588,82.83263 -56.67055,128.7221 -18.6938,42.83957 -19.28258,43.92267 -24.86125,45.73337 -5.53435,1.7964 -5.7117,2.1106 -5.64073,9.9961 0.17014,18.9087 21.88348,47.2598 47.87588,62.5113 41.11856,24.1271 96.45826,26.2014 139.79632,5.2398 22.47794,-10.8721 38.66944,-27.2234 50.70414,-51.2047 8.1241,-16.1886 8.6109,-18.9137 4.1061,-22.9904 -1.7305,-1.566 -15.037,-28.6785 -29.5702,-60.25 -14.53319,-31.57152 -37.09178,-80.40192 -50.13021,-108.51203 l -23.70623,-51.10926 4.57006,-4.77012 c 3.52132,-3.67547 4.73529,-6.76256 5.29008,-13.45264 0.62999,-7.59687 0.17556,-9.3296 -3.63437,-13.85745 -5.58946,-6.64269 -12.3875,-7.89958 -28.3592,-5.24331 -17.08958,2.84218 -35.29468,2.35002 -91.71081,-2.47931 -26.48843,-2.26749 -59.66428,-4.9852 -73.7241,-6.0394 l -25.56329,-1.91674 -1.14937,-14.5218 c -1.11075,-14.0341 -1.01103,-14.66831 2.96919,-18.88401 5.34761,-5.66396 10.44365,-15.81983 11.8471,-23.61004 2.3961,-13.30006 -6.6381,-29.74702 -19.56478,-35.6182 -7.94823,-3.61 -22.19781,-4.00548 -28.35837,-0.78705 -21.0212,10.98198 -25.02482,41.7318 -7.84152,60.22679 3.91122,4.20981 4.2493,5.7206 4.2493,18.98959 v 14.41592 l -14.28499,1.0883 c -27.94703,2.12911 -112.47678,9.16484 -126.93226,10.56506 -15.53962,1.50522 -37.74052,1.29962 -62.03763,-0.57451 -13.05001,-1.00662 -15.26764,-0.76914 -19.83068,2.1235 -10.24707,6.49594 -10.66816,23.33734 -0.7913,31.64818 l 4.62119,3.88847 -13.36919,30.92281 c -7.35306,17.00755 -27.5326,62.88036 -44.84343,101.93959 -28.32586,63.91286 -32.2697,71.86246 -39.42608,79.47146 -7.12571,7.5763 -7.8453,9.018 -6.92641,13.8768 7.17725,37.9518 41.79338,68.0827 90.99121,79.2016 15.62113,3.5305 50.25787,3.6171 65.51818,0.164 39.55639,-8.951 69.9691,-30.2932 84.02846,-58.9672 3.59843,-7.3391 6.72841,-15.8747 6.95553,-18.9681 0.34757,-4.734 -0.40298,-6.1555 -4.74089,-8.9791 -6.13609,-3.9941 -4.19796,-0.1274 -36.86781,-73.55519 -14.38212,-32.32488 -28.34249,-63.54777 -31.023,-69.38419 -8.41585,-18.32424 -24.32091,-54.22908 -29.10851,-65.71093 l -4.59497,-11.01984 h 79.15205 c 75.51373,0 79.44169,0.14776 85.45279,3.21437 3.46541,1.76793 8.02773,5.99221 10.13854,9.38728 3.81584,6.13761 3.8357,6.43433 3.47117,51.88484 -0.58082,72.42123 -6.82468,176.43036 -13.62288,226.92726 -7.26174,53.9401 -16.02415,77.5082 -41.53412,111.7137 -12.35538,16.5669 -37.35811,44.8057 -50.99452,57.5947 l -8.1933,7.6841 -31.93595,-21.561 c -17.56481,-11.8585 -59.3431,-40.0485 -92.84068,-62.6444 -96.75748,-65.2684 -126.91447,-85.7456 -167.838,-113.9655 -21.10096,-14.5507 -50.85454,-34.7484 -66.11907,-44.8838 -15.26452,-10.1355 -28.27663,-18.8949 -28.9158,-19.4654 -2.89139,-2.5809 11.07992,-73.45769 20.80358,-105.53695 16.608,-54.7913 46.16885,-103.41566 82.32496,-135.41558 21.32842,-18.87665 59.58504,-39.61504 115.9816,-62.87193 39.33356,-16.22044 78.84708,-35.66588 90.82122,-44.69502 15.85271,-11.95382 29.81259,-27.94498 35.90333,-41.12762 7.07385,-15.3104 13.43661,-37.56617 14.73555,-51.54217 l 1.04271,-11.21922 -12.34562,5.70402 c -39.91304,18.44096 -81.08455,12.65303 -109.10136,-15.33758 -16.21965,-16.2045 -23.83773,-33.44959 -25.47042,-57.65769 l -0.96022,-14.23709 -5.88359,-1.86163 c -15.39597,-4.87139 -33.93644,-19.21782 -44.84635,-34.70167 -16.49766,-23.41423 -22.91871,-45.96363 -22.85472,-80.26117 0.0491,-26.38426 2.26982,-36.9502 12.00884,-57.13994 16.05209,-33.27715 46.24626,-54.95458 81.85736,-58.7682 l 10.77054,-1.15344 1.09081,-15.83779 c 3.08141,-44.73989 19.2673,-90.52191 45.65223,-129.12803 12.76929,-18.683838 42.80686,-47.8654 63.39165,-61.585106 48.23522,-32.148581 103.61846,-47.7970409 169.16399,-47.7970409 57.42399,0 112.21911,11.8905709 156.17823,33.8907709 23.59413,11.808141 51.12734,30.089131 50.20774,33.335994 -0.24672,0.871118 0.21693,1.172524 1.03035,0.66981 2.65209,-1.639067 25.84871,24.445663 32.73988,36.816192 3.68151,6.60876 8.67816,17.89319 11.10366,25.0765 4.12945,12.22964 4.41453,14.9301 4.4809,42.4468 0.0535,22.18195 -0.69083,33.48953 -3.03612,46.12344 -2.79186,15.03968 -2.85419,17.02662 -0.61453,19.59083 7.2239,8.27077 7.68182,26.22799 1.12286,44.03271 -5.19617,14.10538 -4.87186,15.78789 10.80125,56.03629 9.04391,23.22464 11.96178,29.55187 24.05657,52.16475 8.45592,15.80956 10.10787,21.8279 8.53952,31.11094 -1.21336,7.18174 -8.23962,16.8737 -10.99719,15.16942 -1.01647,-0.62822 -1.25782,-0.29919 -0.58229,0.79384 1.62036,2.62178 -11.2615,10.44005 -23.11502,14.02902 l -9.7419,2.94959 4.05971,7.26357 c 5.64313,10.09668 4.50345,19.08268 -3.9737,31.3313 -6.19776,8.9551 -6.31791,9.39785 -4.83536,17.81611 1.76999,10.05055 -0.0645,17.93091 -6.31991,27.14887 -4.05002,5.96802 -4.07199,6.1768 -1.63746,15.57192 2.9505,11.38632 3.20923,31.59779 0.54017,42.19756 -2.60252,10.33555 -15.3827,23.25535 -26.69478,26.98648 -14.8653,4.90307 -30.96055,6.17112 -54.63882,4.30465 -51.88038,-4.08952 -51.59511,-4.09082 -54.42146,0.24424 -5.26264,8.0719 -7.29803,35.7245 -4.89861,66.55205 l 1.06542,13.68847 9.94464,4.50811 c 5.46955,2.47945 29.78035,11.26188 54.024,19.51653 123.16712,41.93671 149.34693,53.55024 181.77023,80.63429 46.4165,38.77301 72.8226,90.64458 109.3907,214.8851 14.4045,48.9392 46.2613,163.5045 45.6384,164.1275 -0.718,0.7179 -41.6586,18.0706 -73.9556,31.346 -14.3666,5.9055 -41.9163,17.2829 -61.2213,25.2834 -158.1806,65.5533 -238.11344,93.8615 -294.18744,104.1866 -23.63834,4.3526 -58.53305,5.5501 -73.95706,2.538 z M 896.722,599.92803 c 11.02189,-5.76954 13.81784,-16.33569 9.94115,-37.56869 -2.2663,-12.41287 -0.40347,-20.25768 7.55913,-31.83328 5.88239,-8.55149 7.19492,-14.92597 3.65094,-17.73137 -1.12239,-0.88848 -6.5132,-1.99997 -11.97955,-2.46995 -9.47289,-0.81446 -20.26371,-4.77659 -20.26371,-7.44033 0,-2.16064 18.32909,-11.98183 29.38625,-15.74589 9.70418,-3.30349 10.6544,-4.03999 11.11093,-8.61183 0.33896,-3.39433 -1.65999,-9.12383 -6.22612,-17.84573 -5.74745,-10.97834 -6.48423,-13.4806 -5.06696,-17.20832 2.23907,-5.88921 5.40909,-7.31101 25.01288,-11.21876 9.23989,-1.84186 18.45277,-4.42013 20.47308,-5.72949 5.4529,-3.53404 4.60764,-9.76043 -3.08685,-22.73843 -3.71808,-6.27114 -8.04849,-14.70803 -9.62314,-18.74864 -2.8568,-7.33065 -2.8837,-7.34872 -12.42255,-8.34498 -5.25776,-0.54912 -29.76261,-1.12073 -54.45522,-1.27026 -93.94639,-0.56887 -150.80198,-5.77032 -191.34189,-17.50494 -2.00091,-0.57919 -3.75853,1.11305 -6.27086,6.03761 -5.07407,9.94602 -17.33805,21.44628 -28.50325,26.72827 -18.20912,8.61429 -48.20758,7.2475 -70.76559,-3.22424 -4.80321,-2.22971 -9.48828,-4.05403 -10.41128,-4.05403 -3.44006,0 -0.0761,16.42793 5.7713,28.18349 11.90137,23.92675 35.16264,40.64273 65.17351,46.83488 9.13737,1.8853 9.39342,2.08781 11.07463,8.75957 13.56495,53.83206 43.93873,86.98759 97.11674,106.01108 16.04969,5.74149 87.31243,25.69179 101.14705,28.31651 15.09482,2.86384 35.97347,2.09556 42.99938,-1.58225 z M 874.84045,240.73171 c 53.51158,-0.16147 58.74825,-0.42022 60.36479,-2.98314 2.63854,-4.18324 -5.25729,-50.23636 -13.07541,-76.26337 l -4.13538,-13.76697 -5.17546,9.68555 c -2.84651,5.32703 -7.28897,12.45608 -9.87216,15.84231 -12.86871,16.86929 -56.59438,43.74193 -98.94533,60.80921 -8.53018,3.43763 -16.24407,6.9312 -17.14198,7.76348 -1.00452,0.93109 4.3339,1.04707 13.87684,0.30145 8.53017,-0.66645 41.87702,-1.2913 74.10409,-1.38852 z M 386.06373,1036.7436 c 0,-0.6694 1.13498,-2.8376 2.52218,-4.818 2.39148,-3.4143 13.85526,-29.0965 60.51745,-135.57617 11.13782,-25.41571 21.92232,-49.49981 23.96556,-53.52024 l 3.71498,-7.30987 15.78862,35.56196 c 8.68374,19.55908 23.23372,52.09172 32.3333,72.29478 9.09957,20.20304 22.06351,49.22197 28.80876,64.48644 6.74523,15.2646 12.60692,28.3159 13.02595,29.0031 0.41904,0.6871 -40.06182,1.2146 -89.95744,1.1722 -49.89565,-0.042 -90.71936,-0.6248 -90.71936,-1.2942 z m 437.52877,0.1948 c -9e-5,-0.1707 6.55071,-15.2312 14.55736,-33.4677 8.00663,-18.23648 27.53903,-62.91082 43.4053,-99.27631 15.86627,-36.36549 29.06489,-66.33897 29.33027,-66.60775 0.6549,-0.66324 20.34173,41.3434 77.50616,165.37816 l 15.80061,34.284 h -90.29978 c -49.66486,0 -90.29982,-0.1398 -90.29992,-0.3104 z" id="SvgjsPath1861"></path>
  </g>
</svg><style>@media (prefers-color-scheme: light) { :root { filter: none; } }
@media (prefers-color-scheme: dark) { :root { filter: none; } }
</style></svg>