<?xml version="1.0" encoding="utf-8"?>
<svg viewBox="0 0 512 512" width="512px" height="512px" xmlns="http://www.w3.org/2000/svg" xmlns:xlink="http://www.w3.org/1999/xlink" xmlns:bx="https://boxy-svg.com"><defs><bx:export><bx:file format="svg" xlink:href="#object-0"/><bx:file format="svg" path="Untitled 2.svg"/></bx:export></defs><ellipse style="fill: rgb(166, 166, 166);" cx="256" cy="256" rx="245.294" ry="245.294"/><path d="M 340.06 52.981 C 344.045 54.654 346.912 58.239 347.709 62.463 L 363.565 148.435 L 449.537 164.211 C 453.761 165.008 457.346 167.876 459.019 171.86 C 460.692 175.844 460.215 180.385 457.744 183.971 L 408.105 256 L 457.744 327.949 C 460.215 331.534 460.692 336.077 459.019 340.06 C 457.346 344.045 453.761 346.912 449.537 347.709 L 363.565 363.565 L 347.709 449.537 C 346.912 453.761 344.045 457.346 340.06 459.019 C 336.077 460.692 331.534 460.215 327.949 457.744 L 256 408.105 L 184.051 457.744 C 180.466 460.215 175.923 460.692 171.94 459.019 C 167.955 457.346 165.088 453.761 164.291 449.537 L 148.435 363.565 L 62.463 347.709 C 58.239 346.912 54.654 344.045 52.981 340.06 C 51.308 336.077 51.785 331.534 54.256 327.949 L 103.895 256 L 54.256 184.051 C 51.785 180.466 51.308 175.923 52.981 171.94 C 54.654 167.955 58.239 165.088 62.463 164.291 L 148.435 148.435 L 164.291 62.463 C 165.088 58.239 167.955 54.654 171.94 52.981 C 175.923 51.308 180.466 51.785 184.051 54.256 L 256 103.895 L 327.949 54.256 C 331.534 51.785 336.077 51.308 340.06 52.981 Z M 179.51 256 C 179.51 197.117 243.251 160.316 294.245 189.756 C 317.911 203.421 332.49 228.672 332.49 256 C 332.49 314.883 268.749 351.684 217.755 322.244 C 194.089 308.579 179.51 283.328 179.51 256 Z M 357.988 256 C 357.988 177.49 272.998 128.421 205.006 167.676 C 173.451 185.895 154.012 219.563 154.012 256 C 154.012 334.51 239.002 383.579 306.994 344.324 C 338.549 326.106 357.988 292.437 357.988 256 Z" style="fill: rgb(216, 216, 216);" id="object-0"/></svg>