<?xml version="1.0" encoding="utf-8"?>
<svg viewBox="0 0 512 512" width="512px" height="512px" xmlns="http://www.w3.org/2000/svg" xmlns:bx="https://boxy-svg.com"><defs><bx:export><bx:file format="svg" path="Untitled 2.svg"/></bx:export></defs><ellipse style="fill: rgb(255, 255, 255);" cx="256" cy="256" rx="245.294" ry="245.294"/><path d="M 265.428 30 C 141.928 30 41.928 130.3 41.928 254 C 41.928 377.7 141.928 478 265.428 478 C 326.028 478 380.928 453.8 421.228 414.6 C 426.228 409.7 427.528 402.1 424.328 395.9 C 421.128 389.7 414.228 386.2 407.328 387.4 C 397.528 389.1 387.528 390 377.228 390 C 280.328 390 201.728 311.2 201.728 214 C 201.728 148.2 237.728 90.9 291.028 60.7 C 297.128 57.2 300.228 50.2 298.728 43.4 C 297.228 36.6 291.428 31.5 284.428 30.9 C 278.128 30.4 271.828 30.1 265.428 30.1 L 265.428 30 Z" style="fill: rgb(4, 53, 128);"/></svg>